<svg version="1.1" id="Layer_1" xmlns="http://www.w3.org/2000/svg" xmlns:xlink="http://www.w3.org/1999/xlink" x="0px" y="0px"
	 width="16px" height="16px" viewBox="0 0 500 500" enable-background="new 0 0 500 500" xml:space="preserve">
<path fill="#FEFFFF" opacity="1.000000" stroke="none" 
	d="
M296.000000,501.000000 
	C197.333359,501.000000 99.166710,501.000000 1.000053,501.000000 
	C1.000035,334.333405 1.000035,167.666794 1.000018,1.000142 
	C167.666565,1.000095 334.333130,1.000095 500.999756,1.000047 
	C500.999847,167.666519 500.999847,334.333038 500.999939,500.999786 
	C432.833344,501.000000 364.666656,501.000000 296.000000,501.000000 
M466.374023,231.663910 
	C466.231415,231.110168 466.088776,230.556442 465.993439,229.140060 
	C463.031860,201.089966 454.965149,174.600037 441.613525,149.748260 
	C440.788849,148.213364 439.327209,147.020660 438.199768,144.945633 
	C432.994690,136.719452 428.248993,128.154694 422.488586,120.337753 
	C410.617004,104.227806 396.499664,90.250916 379.771667,78.057823 
	C377.393646,76.346611 375.057404,74.573586 372.631287,72.933556 
	C340.905121,51.486935 305.976532,38.756126 267.772522,36.239223 
	C203.130890,31.980602 147.056229,52.234802 100.183533,97.111923 
	C86.182114,110.517258 74.069389,125.541473 64.242905,143.098007 
	C59.726585,152.281433 54.295036,161.141998 50.914181,170.725983 
	C46.160130,184.202637 42.928047,198.216187 38.685135,212.716003 
	C34.678753,234.726685 33.541950,256.806824 36.975174,279.852997 
	C40.429779,307.299744 48.959080,333.046539 62.949833,357.708923 
	C69.650925,367.585632 75.880203,377.827240 83.167992,387.250214 
	C93.132050,400.133575 104.617035,411.657257 118.242966,421.790161 
	C135.111252,435.254211 153.502563,446.020508 174.328888,453.807495 
	C175.118210,454.047333 175.920059,454.252502 176.695053,454.532104 
	C202.780685,463.943237 229.718704,468.571320 257.403870,467.562744 
	C299.312622,466.035980 338.145508,454.368835 372.490692,429.809631 
	C383.111481,422.214966 392.774628,413.281097 403.492676,404.686127 
	C419.136841,389.170868 432.070587,371.668518 442.649414,351.626434 
	C444.692902,347.285614 447.191895,343.096252 448.695312,338.575806 
	C453.392700,324.451721 457.713928,310.202545 462.598267,295.359222 
	C463.716034,287.903168 464.833801,280.447083 466.276031,272.667297 
	C466.220490,272.104065 466.164917,271.540833 466.273712,270.158569 
	C466.210724,257.444366 466.147705,244.730148 466.374023,231.663910 
z"/>
<path fill="#02E89C" opacity="1.000000" stroke="none" 
	d="
M380.172729,78.584839 
	C396.499664,90.250916 410.617004,104.227806 422.488586,120.337753 
	C428.248993,128.154694 432.994690,136.719452 437.969910,145.642822 
	C433.525848,147.559845 429.364716,149.025024 425.086700,149.949463 
	C415.613983,151.996414 406.074585,153.732849 396.578247,155.673691 
	C391.599609,156.691208 386.684326,158.038025 381.687286,158.942215 
	C373.924652,160.346786 366.131714,161.604797 358.323975,162.733612 
	C349.088623,164.068863 340.559113,169.025726 330.572418,167.920898 
	C301.882111,142.178452 268.748871,132.004562 231.021988,138.216049 
	C197.952576,143.660736 172.490921,161.177353 153.589371,189.000626 
	C149.154587,190.318069 145.143005,191.678955 141.098068,192.932175 
	C139.089127,193.554596 137.041611,194.277222 134.972015,194.434631 
	C129.896378,194.820663 124.794647,194.855484 119.712738,195.178360 
	C119.134048,195.215134 118.702377,196.359955 118.050209,196.690033 
	C116.558403,197.445084 114.924286,198.658493 113.432671,198.547470 
	C106.662704,198.043625 100.403946,198.906311 95.442955,203.375916 
	C93.350624,202.975159 90.569023,201.656570 89.770500,202.417908 
	C84.856377,207.103241 76.802345,201.254791 72.580887,207.764694 
	C72.356918,208.110062 70.744095,207.469482 69.772469,207.433838 
	C67.982590,207.368179 65.410301,206.650513 64.536133,207.545197 
	C61.360317,210.795502 57.397850,209.056778 53.904209,209.900009 
	C51.757317,210.418213 49.431835,210.143356 47.219479,210.456970 
	C44.476879,210.845718 41.768349,211.474854 39.045097,212.000137 
	C42.928047,198.216187 46.160130,184.202637 50.914181,170.725983 
	C54.295036,161.141998 59.726585,152.281433 64.804352,143.241516 
	C67.805222,143.460815 70.298294,143.893250 72.672600,143.536118 
	C77.237160,142.849518 81.712112,141.588654 86.263374,140.788589 
	C109.896088,136.634171 133.042267,130.090454 156.852631,126.731300 
	C165.966904,125.445457 174.865845,122.643318 183.870255,120.563904 
	C187.731201,119.672287 191.596924,118.790504 195.484879,118.028870 
	C203.855713,116.389046 212.275497,114.984970 220.614639,113.201004 
	C232.715683,110.612274 244.726410,107.595001 256.844604,105.094681 
	C267.325592,102.932167 277.938873,101.414192 288.428406,99.289154 
	C302.673615,96.403275 316.828278,93.070335 331.074249,90.188530 
	C345.494934,87.271370 359.997009,84.756073 374.416626,81.833961 
	C376.470459,81.417755 378.260559,79.700134 380.172729,78.584839 
z"/>
<path fill="#06D195" opacity="1.000000" stroke="none" 
	d="
M117.928940,421.211456 
	C104.617035,411.657257 93.132050,400.133575 83.167992,387.250214 
	C75.880203,377.827240 69.650925,367.585632 63.287590,357.318787 
	C74.145805,354.936096 84.679550,353.010498 95.182106,350.927643 
	C102.252609,349.525452 109.259682,347.803253 116.330421,346.402344 
	C124.029892,344.876831 131.770157,343.557220 139.410034,342.528992 
	C138.645920,344.961334 137.988373,347.020844 137.278168,349.062073 
	C135.481949,354.224701 135.076797,359.195160 139.383469,363.433868 
	C143.839722,367.819855 148.839859,367.172424 154.217209,365.278564 
	C165.506241,361.302612 176.958572,357.784546 188.205109,353.696747 
	C192.483795,352.141571 195.826080,352.708191 199.895920,354.639923 
	C236.967529,372.235748 273.517944,370.947876 309.347351,350.870331 
	C323.980225,342.670593 335.447449,330.968384 345.970215,318.082825 
	C348.163910,319.143860 350.179932,320.956390 351.865845,320.688843 
	C360.945190,319.247986 369.957031,317.360443 378.964600,315.494019 
	C390.898895,313.021149 402.799622,310.386627 414.730072,307.894897 
	C424.208313,305.915344 433.774109,304.312500 443.178192,302.035187 
	C449.621613,300.474854 455.854187,298.043732 462.180969,296.001862 
	C457.713928,310.202545 453.392700,324.451721 448.695312,338.575806 
	C447.191895,343.096252 444.692902,347.285614 441.969727,351.820618 
	C438.534424,353.001831 435.849762,354.343506 433.010284,354.911652 
	C423.096893,356.895294 413.113281,358.525665 403.189209,360.459045 
	C396.320740,361.797089 389.554413,363.702789 382.657959,364.844879 
	C367.958527,367.279205 353.773010,372.134247 338.868042,373.687866 
	C332.821777,374.318146 326.966492,376.608917 320.961334,377.835938 
	C298.311218,382.463837 275.625305,386.916443 252.975327,391.545074 
	C246.673111,392.832977 240.496338,394.759247 234.176163,395.928497 
	C226.659821,397.319031 218.922302,397.668640 211.509552,399.431732 
	C197.234894,402.826965 183.073502,406.471863 168.472931,408.519592 
	C157.181076,410.103271 146.147781,413.498535 134.972412,415.965485 
	C131.849777,416.654785 128.457306,416.431366 125.508492,417.505127 
	C122.925461,418.445709 118.515030,416.168396 117.928940,421.211456 
z"/>
<path fill="#01EF9E" opacity="1.000000" stroke="none" 
	d="
M379.972198,78.321327 
	C378.260559,79.700134 376.470459,81.417755 374.416626,81.833961 
	C359.997009,84.756073 345.494934,87.271370 331.074249,90.188530 
	C316.828278,93.070335 302.673615,96.403275 288.428406,99.289154 
	C277.938873,101.414192 267.325592,102.932167 256.844604,105.094681 
	C244.726410,107.595001 232.715683,110.612274 220.614639,113.201004 
	C212.275497,114.984970 203.855713,116.389046 195.484879,118.028870 
	C191.596924,118.790504 187.731201,119.672287 183.870255,120.563904 
	C174.865845,122.643318 165.966904,125.445457 156.852631,126.731300 
	C133.042267,130.090454 109.896088,136.634171 86.263374,140.788589 
	C81.712112,141.588654 77.237160,142.849518 72.672600,143.536118 
	C70.298294,143.893250 67.805222,143.460815 65.105164,143.054779 
	C74.069389,125.541473 86.182114,110.517258 100.183533,97.111923 
	C147.056229,52.234802 203.130890,31.980602 267.772522,36.239223 
	C305.976532,38.756126 340.905121,51.486935 372.631287,72.933556 
	C375.057404,74.573586 377.393646,76.346611 379.972198,78.321327 
z"/>
<path fill="#06CC94" opacity="1.000000" stroke="none" 
	d="
M118.085953,421.500793 
	C118.515030,416.168396 122.925461,418.445709 125.508492,417.505127 
	C128.457306,416.431366 131.849777,416.654785 134.972412,415.965485 
	C146.147781,413.498535 157.181076,410.103271 168.472931,408.519592 
	C183.073502,406.471863 197.234894,402.826965 211.509552,399.431732 
	C218.922302,397.668640 226.659821,397.319031 234.176163,395.928497 
	C240.496338,394.759247 246.673111,392.832977 252.975327,391.545074 
	C275.625305,386.916443 298.311218,382.463837 320.961334,377.835938 
	C326.966492,376.608917 332.821777,374.318146 338.868042,373.687866 
	C353.773010,372.134247 367.958527,367.279205 382.657959,364.844879 
	C389.554413,363.702789 396.320740,361.797089 403.189209,360.459045 
	C413.113281,358.525665 423.096893,356.895294 433.010284,354.911652 
	C435.849762,354.343506 438.534424,353.001831 441.692139,352.023743 
	C432.070587,371.668518 419.136841,389.170868 402.787537,404.844849 
	C388.755463,407.997314 375.426361,410.981354 362.102631,413.989319 
	C356.328094,415.293030 350.596832,416.812073 344.788605,417.937439 
	C336.232086,419.595276 327.585358,420.797516 319.047363,422.538605 
	C305.788818,425.242401 292.611572,428.344574 279.353912,431.052979 
	C274.191925,432.107513 268.823669,432.190216 263.691864,433.347504 
	C252.125275,435.955933 240.669296,439.052002 229.119034,441.737762 
	C226.094147,442.441132 222.819901,442.050568 219.778885,442.709930 
	C209.166489,445.010956 198.607254,447.556824 188.025421,449.999237 
	C183.323044,451.084564 178.614929,452.144989 173.909409,453.216644 
	C153.502563,446.020508 135.111252,435.254211 118.085953,421.500793 
z"/>
<path fill="#03DF99" opacity="1.000000" stroke="none" 
	d="
M330.882416,168.036331 
	C340.559113,169.025726 349.088623,164.068863 358.323975,162.733612 
	C366.131714,161.604797 373.924652,160.346786 381.687286,158.942215 
	C386.684326,158.038025 391.599609,156.691208 396.578247,155.673691 
	C406.074585,153.732849 415.613983,151.996414 425.086700,149.949463 
	C429.364716,149.025024 433.525848,147.559845 437.950989,146.004364 
	C439.327209,147.020660 440.788849,148.213364 441.613525,149.748260 
	C454.965149,174.600037 463.031860,201.089966 465.742584,229.570984 
	C465.491730,230.001907 465.037415,230.013092 464.632019,230.016632 
	C460.190430,230.832428 456.151581,231.631546 452.118561,232.459259 
	C434.782562,236.017212 417.446442,239.574493 400.115112,243.154999 
	C396.891724,243.820923 393.671844,244.520187 390.482239,245.329773 
	C382.443695,247.370163 374.462463,250.867966 366.142548,245.627243 
	C365.128052,230.494095 361.709930,216.381073 355.485565,202.919739 
	C349.404541,189.768463 340.720459,178.509033 330.882416,168.036331 
z"/>
<path fill="#04DB98" opacity="1.000000" stroke="none" 
	d="
M139.492630,342.147858 
	C131.770157,343.557220 124.029892,344.876831 116.330421,346.402344 
	C109.259682,347.803253 102.252609,349.525452 95.182106,350.927643 
	C84.679550,353.010498 74.145805,354.936096 63.223007,356.967865 
	C48.959080,333.046539 40.429779,307.299744 37.420834,279.434906 
	C39.643818,279.277893 41.531849,280.062439 43.180248,279.713837 
	C52.852825,277.668365 62.433105,275.182220 72.114594,273.184265 
	C83.062935,270.924896 94.089569,269.046814 105.074066,266.960297 
	C115.383316,265.002045 125.681992,262.988159 136.115799,261.428406 
	C136.208755,263.510834 135.875717,265.220245 136.180115,266.807434 
	C138.788422,280.408203 142.813705,293.528564 149.348648,305.831665 
	C150.166504,307.371399 150.318863,309.761566 149.784668,311.441254 
	C146.513351,321.727478 142.955215,331.922485 139.492630,342.147858 
z"/>
<path fill="#04D797" opacity="1.000000" stroke="none" 
	d="
M366.238586,245.999725 
	C374.462463,250.867966 382.443695,247.370163 390.482239,245.329773 
	C393.671844,244.520187 396.891724,243.820923 400.115112,243.154999 
	C417.446442,239.574493 434.782562,236.017212 452.118561,232.459259 
	C456.151581,231.631546 460.190430,230.832428 464.661804,230.315643 
	C465.426270,231.079391 465.755493,231.547668 466.084717,232.015930 
	C466.147705,244.730148 466.210724,257.444366 465.959808,270.702454 
	C465.747772,271.827911 465.849670,272.409454 465.951569,272.991028 
	C464.833801,280.447083 463.716034,287.903168 462.389648,295.680542 
	C455.854187,298.043732 449.621613,300.474854 443.178192,302.035187 
	C433.774109,304.312500 424.208313,305.915344 414.730072,307.894897 
	C402.799622,310.386627 390.898895,313.021149 378.964600,315.494019 
	C369.957031,317.360443 360.945190,319.247986 351.865845,320.688843 
	C350.179932,320.956390 348.163910,319.143860 346.078217,317.745605 
	C360.515076,295.717926 366.998047,271.895447 366.238586,245.999725 
z"/>
<path fill="#03E29A" opacity="1.000000" stroke="none" 
	d="
M135.985321,260.998779 
	C125.681992,262.988159 115.383316,265.002045 105.074066,266.960297 
	C94.089569,269.046814 83.062935,270.924896 72.114594,273.184265 
	C62.433105,275.182220 52.852825,277.668365 43.180248,279.713837 
	C41.531849,280.062439 39.643818,279.277893 37.473602,279.008484 
	C33.541950,256.806824 34.678753,234.726685 38.865116,212.358063 
	C41.768349,211.474854 44.476879,210.845718 47.219479,210.456970 
	C49.431835,210.143356 51.757317,210.418213 53.904209,209.900009 
	C57.397850,209.056778 61.360317,210.795502 64.536133,207.545197 
	C65.410301,206.650513 67.982590,207.368179 69.772469,207.433838 
	C70.744095,207.469482 72.356918,208.110062 72.580887,207.764694 
	C76.802345,201.254791 84.856377,207.103241 89.770500,202.417908 
	C90.569023,201.656570 93.350624,202.975159 95.442955,203.375916 
	C100.403946,198.906311 106.662704,198.043625 113.432671,198.547470 
	C114.924286,198.658493 116.558403,197.445084 118.050209,196.690033 
	C118.702377,196.359955 119.134048,195.215134 119.712738,195.178360 
	C124.794647,194.855484 129.896378,194.820663 134.972015,194.434631 
	C137.041611,194.277222 139.089127,193.554596 141.098068,192.932175 
	C145.143005,191.678955 149.154587,190.318069 153.523163,189.341125 
	C149.274796,199.958359 144.142502,210.035110 140.229279,220.564911 
	C135.402283,233.553528 135.810349,247.347198 135.985321,260.998779 
z"/>
<path fill="#08C993" opacity="1.000000" stroke="none" 
	d="
M174.119141,453.512085 
	C178.614929,452.144989 183.323044,451.084564 188.025421,449.999237 
	C198.607254,447.556824 209.166489,445.010956 219.778885,442.709930 
	C222.819901,442.050568 226.094147,442.441132 229.119034,441.737762 
	C240.669296,439.052002 252.125275,435.955933 263.691864,433.347504 
	C268.823669,432.190216 274.191925,432.107513 279.353912,431.052979 
	C292.611572,428.344574 305.788818,425.242401 319.047363,422.538605 
	C327.585358,420.797516 336.232086,419.595276 344.788605,417.937439 
	C350.596832,416.812073 356.328094,415.293030 362.102631,413.989319 
	C375.426361,410.981354 388.755463,407.997314 402.479309,404.981934 
	C392.774628,413.281097 383.111481,422.214966 372.490692,429.809631 
	C338.145508,454.368835 299.312622,466.035980 257.403870,467.562744 
	C229.718704,468.571320 202.780685,463.943237 176.695053,454.532104 
	C175.920059,454.252502 175.118210,454.047333 174.119141,453.512085 
z"/>
<path fill="#41E1AE" opacity="1.000000" stroke="none" 
	d="
M466.229370,231.839920 
	C465.755493,231.547668 465.426270,231.079391 465.067200,230.312103 
	C465.037415,230.013092 465.491730,230.001907 465.718933,230.002304 
	C466.088776,230.556442 466.231415,231.110168 466.229370,231.839920 
z"/>
<path fill="#41E1AE" opacity="1.000000" stroke="none" 
	d="
M466.113800,272.829163 
	C465.849670,272.409454 465.747772,271.827911 465.877625,271.111969 
	C466.164917,271.540833 466.220490,272.104065 466.113800,272.829163 
z"/>
<path fill="#FBFEFD" opacity="1.000000" stroke="none" 
	d="
M136.115799,261.428406 
	C135.810349,247.347198 135.402283,233.553528 140.229279,220.564911 
	C144.142502,210.035110 149.274796,199.958359 153.932587,189.340149 
	C172.490921,161.177353 197.952576,143.660736 231.021988,138.216049 
	C268.748871,132.004562 301.882111,142.178452 330.572418,167.920898 
	C340.720459,178.509033 349.404541,189.768463 355.485565,202.919739 
	C361.709930,216.381073 365.128052,230.494095 366.142548,245.627243 
	C366.998047,271.895447 360.515076,295.717926 345.748169,317.537109 
	C335.447449,330.968384 323.980225,342.670593 309.347351,350.870331 
	C273.517944,370.947876 236.967529,372.235748 199.895920,354.639923 
	C195.826080,352.708191 192.483795,352.141571 188.205109,353.696747 
	C176.958572,357.784546 165.506241,361.302612 154.217209,365.278564 
	C148.839859,367.172424 143.839722,367.819855 139.383469,363.433868 
	C135.076797,359.195160 135.481949,354.224701 137.278168,349.062073 
	C137.988373,347.020844 138.645920,344.961334 139.410034,342.528992 
	C142.955215,331.922485 146.513351,321.727478 149.784668,311.441254 
	C150.318863,309.761566 150.166504,307.371399 149.348648,305.831665 
	C142.813705,293.528564 138.788422,280.408203 136.180115,266.807434 
	C135.875717,265.220245 136.208755,263.510834 136.115799,261.428406 
M320.991486,192.147339 
	C320.116547,190.959976 319.348572,189.673218 318.351105,188.599716 
	C288.846344,156.845505 240.212860,149.988632 203.355652,172.730286 
	C182.100464,185.845184 167.776184,204.361038 161.519089,229.596420 
	C156.241928,252.088425 158.707779,273.626373 169.700638,294.841339 
	C175.184509,301.934692 176.055893,309.300720 172.229782,317.662109 
	C169.523849,323.575500 168.020142,330.039032 165.724869,337.033691 
	C174.608994,334.072540 182.520172,331.551575 190.343674,328.782806 
	C194.743820,327.225586 198.621536,327.592316 202.698364,329.993774 
	C230.769455,346.528687 260.052155,348.902832 289.605530,335.076630 
	C320.818390,320.474091 338.423492,295.363312 342.836456,260.107880 
	C343.840881,246.556534 342.589050,233.263519 337.775635,220.486420 
	C333.924194,210.262924 329.398895,200.376007 320.991486,192.147339 
z"/>
<path fill="#0CD799" opacity="1.000000" stroke="none" 
	d="
M342.570557,261.014832 
	C338.423492,295.363312 320.818390,320.474091 289.605530,335.076630 
	C260.052155,348.902832 230.769455,346.528687 202.698364,329.993774 
	C198.621536,327.592316 194.743820,327.225586 190.343674,328.782806 
	C182.520172,331.551575 174.608994,334.072540 165.724869,337.033691 
	C168.020142,330.039032 169.523849,323.575500 172.229782,317.662109 
	C176.055893,309.300720 175.184509,301.934692 170.010086,294.452942 
	C172.915253,293.365784 175.510986,292.666992 178.373978,292.167358 
	C179.429306,293.637573 180.205322,294.916260 181.007172,296.178528 
	C206.543289,336.376923 260.884460,346.796936 299.511017,318.874634 
	C318.712067,304.994598 329.558441,286.012634 333.941711,262.896240 
	C337.108215,262.293518 339.839386,261.654175 342.570557,261.014832 
z"/>
<path fill="#0CE59E" opacity="1.000000" stroke="none" 
	d="
M161.955597,228.984299 
	C167.776184,204.361038 182.100464,185.845184 203.355652,172.730286 
	C240.212860,149.988632 288.846344,156.845505 318.351105,188.599716 
	C319.348572,189.673218 320.116547,190.959976 320.978699,192.861450 
	C320.293274,195.835800 319.512634,197.752472 316.448944,196.366013 
	C315.855743,196.097549 314.784485,196.885529 313.633179,197.027008 
	C288.446167,165.879242 237.960693,159.223907 204.836212,182.344604 
	C188.393326,193.821625 177.338531,209.083801 170.739288,228.032166 
	C167.698822,229.521469 165.197021,232.636963 161.955597,228.984299 
z"/>
<path fill="#0BDE9B" opacity="1.000000" stroke="none" 
	d="
M313.933746,197.186188 
	C314.784485,196.885529 315.855743,196.097549 316.448944,196.366013 
	C319.512634,197.752472 320.293274,195.835800 321.015869,193.201385 
	C329.398895,200.376007 333.924194,210.262924 337.775635,220.486420 
	C342.589050,233.263519 343.840881,246.556534 342.703491,260.561340 
	C339.839386,261.654175 337.108215,262.293518 333.922180,262.435974 
	C336.026764,237.618530 329.670166,215.987579 313.933746,197.186188 
z"/>
<path fill="#0DDF9C" opacity="1.000000" stroke="none" 
	d="
M161.737335,229.290359 
	C165.197021,232.636963 167.698822,229.521469 170.742004,228.439728 
	C170.076385,235.841324 168.557053,242.836609 168.126831,249.898224 
	C167.216095,264.846375 171.695038,278.673859 178.106720,291.968201 
	C175.510986,292.666992 172.915253,293.365784 169.895782,294.103210 
	C158.707779,273.626373 156.241928,252.088425 161.737335,229.290359 
z"/>
<path fill="#FCFEFD" opacity="1.000000" stroke="none" 
	d="
M178.373978,292.167358 
	C171.695038,278.673859 167.216095,264.846375 168.126831,249.898224 
	C168.557053,242.836609 170.076385,235.841324 171.099548,228.408432 
	C177.338531,209.083801 188.393326,193.821625 204.836212,182.344604 
	C237.960693,159.223907 288.446167,165.879242 313.633179,197.027008 
	C329.670166,215.987579 336.026764,237.618530 333.486877,262.399414 
	C329.558441,286.012634 318.712067,304.994598 299.511017,318.874634 
	C260.884460,346.796936 206.543289,336.376923 181.007172,296.178528 
	C180.205322,294.916260 179.429306,293.637573 178.373978,292.167358 
M260.871613,286.807251 
	C241.644592,286.807251 222.417557,286.807251 203.117035,286.807251 
	C203.117035,290.187775 203.117035,292.895416 203.117035,295.630493 
	C235.322647,295.630493 267.147705,295.630493 298.905670,295.630493 
	C298.905670,292.549561 298.905670,289.836884 298.905670,286.955566 
	C288.021271,286.955566 277.568604,286.955566 267.311340,286.344604 
	C269.241394,284.312561 271.537781,282.515839 273.025513,280.199677 
	C276.169525,275.304932 278.929169,270.160156 281.778259,265.079712 
	C289.835510,250.712143 297.889526,236.342560 305.868347,221.931427 
	C307.455017,219.065720 308.631104,215.753387 305.428650,213.337067 
	C302.011749,210.758957 298.650757,212.164551 296.166779,215.091660 
	C294.368011,217.211334 292.954834,219.711609 291.653870,222.191269 
	C285.396332,234.118149 279.271423,246.114670 272.997711,258.032959 
	C272.144440,259.653900 270.718536,260.973450 269.557770,262.432526 
	C269.051819,262.323700 268.545868,262.214844 268.039917,262.106018 
	C268.039917,248.634918 268.237671,235.158340 267.865234,221.697556 
	C267.794678,219.147964 265.910400,215.070435 264.058014,214.547058 
	C261.733276,213.890213 258.448700,215.920914 255.835999,217.285156 
	C254.482025,217.992126 253.456772,219.639618 252.674210,221.075424 
	C249.491394,226.915024 246.425491,232.819412 243.382446,238.733856 
	C240.321045,244.683960 237.337921,250.674316 234.320496,256.647064 
	C233.054337,255.252655 233.014297,254.320114 232.906677,253.395432 
	C231.579269,241.989319 230.475250,230.550034 228.806305,219.193878 
	C228.003052,213.728256 224.811081,211.481689 220.815201,212.251221 
	C216.303711,213.120041 214.493744,216.782944 215.196274,222.214371 
	C217.585327,240.684677 219.919403,259.165039 221.933624,277.678680 
	C222.399887,281.964569 224.223679,284.105164 228.190903,284.678040 
	C232.313385,285.273315 235.838196,282.244812 237.483398,278.709534 
	C242.875229,267.123352 248.717575,255.746857 254.386749,244.289749 
	C255.967773,255.048203 256.360077,265.287506 257.005951,275.510803 
	C257.274780,279.765839 257.467712,284.247131 260.871613,286.807251 
M274.770844,196.753281 
	C274.141968,195.631165 273.618835,193.635574 272.865173,193.544327 
	C270.185303,193.219910 266.972961,192.742569 264.873138,193.931656 
	C263.666779,194.614822 263.180634,199.689835 264.198334,200.504654 
	C266.082489,202.013245 269.361084,202.378616 271.951172,202.124100 
	C273.047363,202.016403 273.871277,199.137985 274.770844,196.753281 
M283.757751,210.005859 
	C288.727325,209.596649 291.383728,207.201935 290.575470,203.584259 
	C289.748260,199.881683 287.093536,198.079727 283.537659,199.132370 
	C281.806061,199.644974 279.841278,201.554443 279.253601,203.267731 
	C278.203369,206.329697 279.841705,208.717285 283.757751,210.005859 
z"/>
<path fill="#0DC794" opacity="1.000000" stroke="none" 
	d="
M261.768646,286.904846 
	C257.467712,284.247131 257.274780,279.765839 257.005951,275.510803 
	C256.360077,265.287506 255.967773,255.048203 254.386749,244.289749 
	C248.717575,255.746857 242.875229,267.123352 237.483398,278.709534 
	C235.838196,282.244812 232.313385,285.273315 228.190903,284.678040 
	C224.223679,284.105164 222.399887,281.964569 221.933624,277.678680 
	C219.919403,259.165039 217.585327,240.684677 215.196274,222.214371 
	C214.493744,216.782944 216.303711,213.120041 220.815201,212.251221 
	C224.811081,211.481689 228.003052,213.728256 228.806305,219.193878 
	C230.475250,230.550034 231.579269,241.989319 232.906677,253.395432 
	C233.014297,254.320114 233.054337,255.252655 234.320496,256.647064 
	C237.337921,250.674316 240.321045,244.683960 243.382446,238.733856 
	C246.425491,232.819412 249.491394,226.915024 252.674210,221.075424 
	C253.456772,219.639618 254.482025,217.992126 255.835999,217.285156 
	C258.448700,215.920914 261.733276,213.890213 264.058014,214.547058 
	C265.910400,215.070435 267.794678,219.147964 267.865234,221.697556 
	C268.237671,235.158340 268.039917,248.634918 268.039917,262.106018 
	C268.545868,262.214844 269.051819,262.323700 269.557770,262.432526 
	C270.718536,260.973450 272.144440,259.653900 272.997711,258.032959 
	C279.271423,246.114670 285.396332,234.118149 291.653870,222.191269 
	C292.954834,219.711609 294.368011,217.211334 296.166779,215.091660 
	C298.650757,212.164551 302.011749,210.758957 305.428650,213.337067 
	C308.631104,215.753387 307.455017,219.065720 305.868347,221.931427 
	C297.889526,236.342560 289.835510,250.712143 281.778259,265.079712 
	C278.929169,270.160156 276.169525,275.304932 273.025513,280.199677 
	C271.537781,282.515839 269.241394,284.312561 266.768494,286.660461 
	C264.739960,286.952454 263.254303,286.928650 261.768646,286.904846 
z"/>
<path fill="#10C895" opacity="1.000000" stroke="none" 
	d="
M261.320129,286.856049 
	C263.254303,286.928650 264.739960,286.952454 266.670776,286.965942 
	C277.568604,286.955566 288.021271,286.955566 298.905670,286.955566 
	C298.905670,289.836884 298.905670,292.549561 298.905670,295.630493 
	C267.147705,295.630493 235.322647,295.630493 203.117035,295.630493 
	C203.117035,292.895416 203.117035,290.187775 203.117035,286.807251 
	C222.417557,286.807251 241.644592,286.807251 261.320129,286.856049 
z"/>
<path fill="#15C997" opacity="1.000000" stroke="none" 
	d="
M274.794861,197.136093 
	C273.871277,199.137985 273.047363,202.016403 271.951172,202.124100 
	C269.361084,202.378616 266.082489,202.013245 264.198334,200.504654 
	C263.180634,199.689835 263.666779,194.614822 264.873138,193.931656 
	C266.972961,192.742569 270.185303,193.219910 272.865173,193.544327 
	C273.618835,193.635574 274.141968,195.631165 274.794861,197.136093 
z"/>
<path fill="#15C998" opacity="1.000000" stroke="none" 
	d="
M283.363617,209.935272 
	C279.841705,208.717285 278.203369,206.329697 279.253601,203.267731 
	C279.841278,201.554443 281.806061,199.644974 283.537659,199.132370 
	C287.093536,198.079727 289.748260,199.881683 290.575470,203.584259 
	C291.383728,207.201935 288.727325,209.596649 283.363617,209.935272 
z"/>
</svg>